<svg xmlns="http://www.w3.org/2000/svg" width="36" height="35.999" viewBox="175.985 278.06 36 35.999"><g data-name="analytics"><path d="M192.275 314.06c8.982 0 16.29-7.308 16.29-16.29v-1.214h-15.077V281.48h-1.213c-8.983 0-16.29 7.308-16.29 16.29s7.307 16.29 16.29 16.29Zm-1.214-30.1v15.023h15.023c-.617 7.078-6.574 12.649-13.81 12.649-7.643 0-13.862-6.22-13.862-13.863 0-7.234 5.57-13.192 12.649-13.809Z" fill="#d0dbe5" fill-rule="evenodd" data-name="Path 24"/><path d="M211.985 294.837c0-9.25-7.527-16.777-16.778-16.777h-1.25v18.027h18.028v-1.25Zm-15.528-1.25v-12.973c6.878.6 12.374 6.096 12.973 12.973h-12.973Z" fill="#d0dbe5" fill-rule="evenodd" data-name="Path 25"/></g></svg>