<?xml version="1.0" encoding="utf-8"?>
<!-- Generator: Adobe Illustrator 27.2.0, SVG Export Plug-In . SVG Version: 6.00 Build 0)  -->
<svg version="1.1" id="Layer_1" xmlns="http://www.w3.org/2000/svg" xmlns:xlink="http://www.w3.org/1999/xlink" x="0px" y="0px"
	 viewBox="0 0 94.34 28.18" style="enable-background:new 0 0 94.34 28.18;" xml:space="preserve">
<style type="text/css">
	.st0{fill:#030303;}
	.st1{fill:none;}
	.st2{fill:#6FC7E8;}
	.st3{fill:#1990BE;}
	.st4{fill:#1E809A;}
</style>
<g>
	<path class="st0" d="M14.71,16.73l0.05,0.05h0C14.74,16.76,14.73,16.75,14.71,16.73z"/>
	<line class="st1" x1="14.76" y1="16.78" x2="14.71" y2="16.73"/>
	<path class="st2" d="M18.26,6.08l1.73,1.73c0.48,0.48,0.5,1.26,0.04,1.77c-0.01,0.02-0.03,0.03-0.04,0.05c-0.5,0.5-1.32,0.5-1.82,0
		L16.44,7.9c-1.47-1.45-3.83-1.43-5.28,0.04c-1.43,1.45-1.43,3.79,0,5.24l3.55,3.55c0.02,0.02,0.03,0.03,0.04,0.05
		c0.48,0.53,0.44,1.34-0.09,1.82c-0.51,0.46-1.29,0.44-1.78-0.04L9.34,15c-2.46-2.46-2.46-6.46,0-8.92S15.8,3.61,18.26,6.08z"/>
	<circle class="st3" cx="7.02" cy="3.76" r="2.37"/>
	<path class="st0" d="M13.81,12.35l-0.05-0.05h0C13.78,12.32,13.8,12.33,13.81,12.35z"/>
	<line class="st1" x1="13.77" y1="12.3" x2="13.81" y2="12.35"/>
	<path class="st3" d="M9.36,22.1l-1.73-1.73c-0.48-0.48-0.5-1.26-0.04-1.77c0.01-0.02,0.03-0.03,0.04-0.05c0.5-0.5,1.32-0.5,1.82,0
		l1.73,1.73c1.47,1.45,3.83,1.43,5.28-0.04c1.43-1.45,1.43-3.79,0-5.24l-3.55-3.55c-0.02-0.02-0.03-0.03-0.04-0.05
		c-0.48-0.53-0.44-1.34,0.09-1.82c0.51-0.46,1.29-0.44,1.78,0.04l3.55,3.55c2.45,2.48,2.43,6.47-0.04,8.92
		C15.79,24.54,11.82,24.54,9.36,22.1z"/>
	<circle class="st2" cx="20.6" cy="24.42" r="2.37"/>
	<path class="st4" d="M29,15.59c0.44,0.22,0.92,0.34,1.41,0.35c0.58,0,0.89-0.24,0.89-0.61c0-0.35-0.27-0.55-0.94-0.79
		c-0.93-0.32-1.54-0.84-1.54-1.66c0-0.96,0.8-1.69,2.12-1.69c0.49-0.01,0.98,0.09,1.43,0.28l-0.28,1.02
		c-0.37-0.18-0.77-0.27-1.17-0.27c-0.55,0-0.82,0.25-0.82,0.54c0,0.36,0.32,0.52,1.04,0.79c0.99,0.37,1.46,0.88,1.46,1.67
		c0,0.94-0.72,1.75-2.27,1.75c-0.55,0-1.09-0.12-1.59-0.35L29,15.59z"/>
	<path class="st4" d="M44.73,16.74c-0.46,0.18-0.95,0.27-1.44,0.25c-1.47,0.15-2.78-0.92-2.93-2.39c-0.01-0.14-0.02-0.28-0.01-0.42
		c-0.07-1.58,1.15-2.92,2.73-2.99c0.11,0,0.22,0,0.33,0c0.47-0.02,0.95,0.07,1.38,0.25l-0.26,1.01c-0.34-0.14-0.7-0.21-1.07-0.21
		c-0.93-0.06-1.74,0.64-1.8,1.58c-0.01,0.09,0,0.19,0.01,0.28c-0.09,0.92,0.59,1.74,1.51,1.83c0.1,0.01,0.19,0.01,0.29,0
		c0.36,0,0.72-0.06,1.06-0.18L44.73,16.74z"/>
	<path class="st4" d="M50.46,14.03c0,1.84-1.12,2.96-2.76,2.96c-1.67,0-2.64-1.26-2.64-2.86c-0.12-1.5,0.99-2.81,2.49-2.93
		c0.08-0.01,0.16-0.01,0.25-0.01c1.45-0.03,2.64,1.11,2.68,2.56C50.47,13.84,50.47,13.94,50.46,14.03z M46.4,14.11
		c0,1.1,0.52,1.87,1.37,1.87c0.86,0,1.35-0.82,1.35-1.91c0-1.01-0.48-1.87-1.36-1.87C46.9,12.2,46.4,13.02,46.4,14.11z"/>
	<path class="st4" d="M51.29,16.9v-5.62h1.48l1.17,2.06c0.35,0.62,0.65,1.26,0.92,1.92h0.03c-0.08-0.78-0.12-1.56-0.11-2.35v-1.63
		h1.17v5.62h-1.33l-1.2-2.17c-0.36-0.64-0.69-1.31-0.97-1.98l-0.02,0.01c0.03,0.74,0.05,1.53,0.05,2.45v1.69L51.29,16.9z"/>
	<path class="st4" d="M57.08,15.59c0.44,0.22,0.92,0.34,1.41,0.35c0.58,0,0.89-0.24,0.89-0.61c0-0.35-0.27-0.55-0.94-0.79
		c-0.93-0.32-1.54-0.84-1.54-1.66c0-0.96,0.8-1.69,2.12-1.69c0.49-0.01,0.98,0.09,1.43,0.28l-0.28,1.02
		c-0.37-0.18-0.77-0.27-1.17-0.27c-0.55,0-0.82,0.25-0.82,0.54c0,0.36,0.32,0.52,1.04,0.79c0.99,0.37,1.46,0.88,1.46,1.67
		c0,0.94-0.73,1.75-2.27,1.75c-0.55,0-1.09-0.12-1.59-0.35L57.08,15.59z"/>
	<path class="st4" d="M62.81,11.28v3.23c0,0.97,0.37,1.46,1.02,1.46c0.67,0,1.03-0.47,1.03-1.46v-3.23h1.27v3.15
		c0,1.73-0.87,2.56-2.34,2.56c-1.42,0-2.25-0.78-2.25-2.57v-3.13H62.81z"/>
	<path class="st4" d="M67.22,11.28h1.27v4.55h2.23v1.07h-3.51L67.22,11.28z"/>
	<path class="st4" d="M71.7,12.35h-1.51v-1.07h4.32v1.07h-1.53v4.55H71.7V12.35z"/>
	<path class="st4" d="M80.05,16.9v-5.62h1.48l1.17,2.06c0.35,0.62,0.65,1.26,0.92,1.92h0.02c-0.08-0.78-0.12-1.56-0.11-2.35v-1.63
		h1.17v5.62h-1.33l-1.2-2.17c-0.36-0.64-0.69-1.31-0.97-1.98l-0.03,0.01c0.03,0.74,0.05,1.53,0.05,2.45v1.69L80.05,16.9z"/>
	<path class="st4" d="M86.88,12.35h-1.51v-1.07h4.32v1.07h-1.53v4.55h-1.27V12.35z"/>
	<path class="st4" d="M36.43,11.28h-1.67l-1.72,5.62h1.32l0.4-1.44h0.85v-0.95h-0.66c0,0,0.51-1.94,0.59-2.27h0.02
		c0.08,0.33,0.63,2.27,0.63,2.27l0.62,2.39h1.37L36.43,11.28z"/>
	<path class="st4" d="M77.56,11.28h-1.67l-1.72,5.62h1.32l0.34-1.22l0.06-0.22h0.85v-0.95h-0.66l0.33-1.19
		c0.09-0.32,0.18-0.75,0.26-1.08h0.02c0.08,0.33,0.18,0.75,0.28,1.08l0.35,1.19l0,0l0.62,2.39l0,0h1.37L77.56,11.28z"/>
</g>
</svg>
