<svg xmlns="http://www.w3.org/2000/svg" width="38.438" height="28.007" viewBox="176.539 336.487 38.438 28.007"><g data-name="messages"><path d="M183.09 347.989h17.012v2.5h-17.013v-2.5z" fill="#d0dbe5" fill-rule="evenodd" data-name="Rectangle 13"/><path d="M183.09 352.533h10.1v2.5h-10.1v-2.5z" fill="#d0dbe5" fill-rule="evenodd" data-name="Rectangle 14"/><path d="M195.051 352.533h1.772v2.5h-1.772v-2.5z" fill="#d0dbe5" fill-rule="evenodd" data-name="Rectangle 15"/><path d="M204.505 336.487c-4.28 0-7.985 1.806-9.612 4.58a20.91 20.91 0 0 0-3.253-.26c-8.327 0-15.1 4.853-15.1 10.82 0 2.344 1.051 4.624 2.978 6.48-.124 1.665-.262 3.907-.262 3.907l-.154 2.48 2.083-1.355c.913-.594 2.38-1.528 3.198-2.01 2.213.863 4.708 1.317 7.257 1.317 8.326 0 15.101-4.853 15.101-10.82 0-.024-.005-.048-.006-.073a13.08 13.08 0 0 0 2.561-.655 79.94 79.94 0 0 1 1.942 1.226l2.083 1.355-.154-2.48s-.083-1.33-.16-2.415c1.275-1.288 1.97-2.857 1.97-4.476 0-4.274-4.6-7.62-10.472-7.62Zm-12.865 23.46c-2.435 0-4.8-.467-6.842-1.35l-.53-.229-.519.256c-.362.178-1.098.624-1.838 1.086.047-.702.1-1.435.145-2.018l.05-.63-.478-.414c-1.18-1.022-2.589-2.723-2.589-5.022 0-4.587 5.652-8.319 12.601-8.319 6.948 0 12.601 3.732 12.601 8.32 0 4.587-5.653 8.32-12.6 8.32Zm19.257-12.81-.477.412.05.63.04.532a10.054 10.054 0 0 0-.567-.318l-.518-.255-.53.23c-.792.34-1.673.585-2.589.725-1.127-3.345-4.414-6.093-8.755-7.42 1.392-1.606 4.048-2.686 6.954-2.686 4.321 0 7.972 2.345 7.972 5.121 0 1.373-.859 2.405-1.58 3.028Z" fill="#d0dbe5" fill-rule="evenodd" data-name="Path 23"/></g></svg>