<svg xmlns="http://www.w3.org/2000/svg" width="40.629" height="54.29" viewBox="2009.884 12340.5 40.629 54.29"><g data-name="Union 2"><path d="M2019.177 12395.29c-4.846 0-8.793-3.948-8.793-8.794v-18.904a2.938 2.938 0 0 1 2.934-2.935h30.924v-7.073c0-7.477-6.083-13.55-13.55-13.55-7.478 0-13.55 6.085-13.55 13.55 0 .846-.675 1.519-1.519 1.519a1.51 1.51 0 0 1-1.517-1.519c0-9.153 7.445-16.584 16.587-16.584 9.151 0 16.587 7.442 16.587 16.584v7.073h.796a2.939 2.939 0 0 1 2.936 2.935v18.904c0 4.846-3.947 8.794-8.794 8.794h-23.041Zm-5.746-8.794a5.76 5.76 0 0 0 5.758 5.756h23.03a5.761 5.761 0 0 0 5.757-5.756v-18.802h-34.545v18.802Zm11.593-6.296a5.685 5.685 0 0 1 5.678-5.68 5.685 5.685 0 0 1 5.679 5.68 5.684 5.684 0 0 1-5.68 5.679 5.686 5.686 0 0 1-5.677-5.68Zm3.036 0c0 1.45 1.181 2.641 2.642 2.641a2.657 2.657 0 0 0 2.644-2.653 2.646 2.646 0 0 0-2.644-2.643c-1.46 0-2.642 1.203-2.642 2.655Z" fill="#fff" fill-rule="evenodd"/><path d="M2019.177 12395.29c-4.846 0-8.793-3.948-8.793-8.794v-18.904a2.938 2.938 0 0 1 2.934-2.935h30.924v-7.073c0-7.477-6.083-13.55-13.55-13.55-7.478 0-13.55 6.085-13.55 13.55 0 .846-.675 1.519-1.519 1.519a1.51 1.51 0 0 1-1.517-1.519c0-9.153 7.445-16.584 16.587-16.584 9.151 0 16.587 7.442 16.587 16.584v7.073h.796a2.939 2.939 0 0 1 2.936 2.935v18.904c0 4.846-3.947 8.794-8.794 8.794h-23.041Zm-5.746-8.794a5.76 5.76 0 0 0 5.758 5.756h23.03a5.761 5.761 0 0 0 5.757-5.756v-18.802h-34.545v18.802Zm11.593-6.296a5.685 5.685 0 0 1 5.678-5.68 5.685 5.685 0 0 1 5.679 5.68 5.684 5.684 0 0 1-5.68 5.679 5.686 5.686 0 0 1-5.677-5.68Zm3.036 0c0 1.45 1.181 2.641 2.642 2.641a2.657 2.657 0 0 0 2.644-2.653 2.646 2.646 0 0 0-2.644-2.643c-1.46 0-2.642 1.203-2.642 2.655Z" stroke-linejoin="round" stroke-linecap="round" stroke="rgba(0,0,0,0 )" fill="transparent"/></g></svg>