<svg xmlns="http://www.w3.org/2000/svg" width="24.514" height="31.899" viewBox="183.501 434 24.514 31.899"><g data-name="trading view"><path d="M185.522 444.446V434h2.5v10.446h-2.5z" fill="#d0dbe5" fill-rule="evenodd" data-name="Rectangle 21"/><path d="M185.522 465.9v-11.12h2.5v11.12h-2.5z" fill="#d0dbe5" fill-rule="evenodd" data-name="Rectangle 22"/><path d="M183.5 445.488v8.475h6.545v-8.475H183.5Zm4.045 2.5v3.475H186v-3.475h1.544Z" fill="#d0dbe5" fill-rule="evenodd" data-name="Path 27"/><path d="M194.508 437.707V434h2.5v3.707h-2.5z" fill="#d0dbe5" fill-rule="evenodd" data-name="Rectangle 23"/><path d="M194.508 465.9V448.04h2.5V465.9h-2.5z" fill="#d0dbe5" fill-rule="evenodd" data-name="Rectangle 24"/><path d="M192.486 438.749v8.475h6.544v-8.475h-6.544Zm4.044 2.5v3.475h-1.544v-3.475h1.544Z" fill="#d0dbe5" fill-rule="evenodd" data-name="Path 28"/><path d="M203.494 448.94V434h2.5v14.94h-2.5z" fill="#d0dbe5" fill-rule="evenodd" data-name="Rectangle 25"/><path d="M203.494 465.9v-6.627h2.5v6.627h-2.5z" fill="#d0dbe5" fill-rule="evenodd" data-name="Rectangle 26"/><path d="M208.015 449.981h-6.543v8.475h6.543v-8.475Zm-4.043 5.975v-3.475h1.543v3.475h-1.543Z" fill="#d0dbe5" fill-rule="evenodd" data-name="Path 29"/></g></svg>