<svg xmlns="http://www.w3.org/2000/svg" width="49.153" height="49.155" viewBox="2006.12 12213 49.153 49.155"><path d="M2048.077 12244.775a24.515 24.515 0 0 0-9.34-5.858c3.723-2.564 6.17-6.854 6.17-11.707 0-7.836-6.375-14.21-14.21-14.21-7.835 0-14.21 6.374-14.21 14.21 0 4.853 2.448 9.143 6.17 11.707a24.519 24.519 0 0 0-9.34 5.858c-4.64 4.645-7.196 10.815-7.196 17.38h3.84c0-11.434 9.3-20.736 20.737-20.736 11.434 0 20.738 9.302 20.738 20.736h3.838c0-6.565-2.556-12.735-7.197-17.38m-17.38-7.199c-5.718 0-10.37-4.649-10.37-10.366 0-5.718 4.652-10.37 10.37-10.37 5.718 0 10.37 4.652 10.37 10.37 0 5.717-4.652 10.366-10.37 10.366" fill="#fff" fill-rule="evenodd" data-name="Path 790"/></svg>